HIERARCHY
ROOT hip
{
	OFFSET 0.000000 0.000000 0.000000 
	CHANNELS 6 Xposition Yposition Zposition Xrotation Zrotation Yrotation
	JOINT abdomen
	{
		OFFSET 0.000000 3.402643 0.000000 
		CHANNELS 3 Xrotation Zrotation Yrotation
		JOINT chest
		{
			OFFSET 0.000000 8.438565 -0.680529 
			CHANNELS 3 Xrotation Zrotation Yrotation
			JOINT neck
			{
				OFFSET 0.000000 10.207942 -0.272212 
				CHANNELS 3 Xrotation Zrotation Yrotation
				JOINT head
				{
					OFFSET 0.000000 3.130431 0.000000 
					CHANNELS 3 Xrotation Zrotation Yrotation
					End Site
					{
						OFFSET 0.000000 3.130435 0.000000 
					}
				}
			}
			JOINT lCollar
			{
				OFFSET 3.470700 6.669187 -0.816635 
				CHANNELS 3 Yrotation Zrotation Xrotation
				JOINT lShldr
				{
					OFFSET 3.198488 0.000000 0.000000 
					CHANNELS 3 Zrotation Yrotation Xrotation
					JOINT lForeArm
					{
						OFFSET 10.139888 0.000000 0.000000 
						CHANNELS 3 Yrotation Zrotation Xrotation
						JOINT lHand
						{
							OFFSET 8.370511 0.000000 0.000000 
							CHANNELS 3 Zrotation Yrotation Xrotation
							End Site
							{
								OFFSET 4.083176 0.000000 0.000000 
							}
						}
					}
				}
			}
			JOINT rCollar
			{
				OFFSET -3.470700 6.669187 -0.816635 
				CHANNELS 3 Yrotation Zrotation Xrotation
				JOINT rShldr
				{
					OFFSET -3.198488 0.000000 0.000000 
					CHANNELS 3 Zrotation Yrotation Xrotation
					JOINT rForeArm
					{
						OFFSET -10.139888 0.000000 0.000000 
						CHANNELS 3 Yrotation Zrotation Xrotation
						JOINT rHand
						{
							OFFSET -8.370511 0.000000 0.000000 
							CHANNELS 3 Zrotation Yrotation Xrotation
							End Site
							{
								OFFSET -4.083176 0.000000 0.000000 
							}
						}
					}
				}
			}
		}
	}
	JOINT lThigh
	{
		OFFSET 5.308129 -1.633274 1.361059 
		CHANNELS 3 Xrotation Zrotation Yrotation
		JOINT lShin
		{
			OFFSET -2.041588 -20.007561 0.000000 
			CHANNELS 3 Xrotation Zrotation Yrotation
			JOINT lFoot
			{
				OFFSET 0.000000 -19.190928 -1.224953 
				CHANNELS 3 Xrotation Yrotation Zrotation
				End Site
				{
					OFFSET 0.000000 -2.449906 4.627600 
				}
			}
		}
	}
	JOINT rThigh
	{
		OFFSET -5.308129 -1.633274 1.361059 
		CHANNELS 3 Xrotation Zrotation Yrotation
		JOINT rShin
		{
			OFFSET 2.041588 -20.007561 0.000000 
			CHANNELS 3 Xrotation Zrotation Yrotation
			JOINT rFoot
			{
				OFFSET 0.000000 -19.190928 -1.224953 
				CHANNELS 3 Xrotation Yrotation Zrotation
				End Site
				{
					OFFSET 0.000000 -2.449906 4.627600 
				}
			}
		}
	}
}
MOTION
Frames: 10
Frame Time: 0.016667
0.800978 53.589153 -4.183003 -7.046419 -4.703061 -6.810591 31.821493 -0.150745 -0.109039 -0.035201 1.962726 -1.172109 -7.989044 -1.244699 0.129060 9.198055 0.350435 4.589937 -3.901618 -8.867567 -0.458723 -58.229000 2.086757 -6.115314 -33.861427 -5.000000 21.919491 -16.608557 -16.661531 11.470220 3.637917 5.804694 -0.308901 64.015053 15.488166 15.220237 28.376368 5.000000 18.575897 26.353193 -14.869252 5.844080 12.103271 20.589930 14.965116 12.284954 -6.373809 -1.679053 -11.872842 13.582002 -7.253588 10.688133 -8.610862 -14.086272 6.387188 2.542683 0.319637 -3.785505 -2.233513 13.707476 
0.481463 53.570740 -4.117912 -7.371726 -4.856103 -7.018219 31.450535 -0.010703 -0.005627 -0.204874 2.031042 -1.289239 -7.969535 -1.254354 0.130520 9.501947 0.320932 5.214927 -3.912104 -8.955337 -0.463249 -58.381767 2.239277 -6.040415 -33.065357 -5.000000 22.456825 -16.733023 -16.890709 11.805277 3.453617 6.029032 -0.320508 64.129585 14.823549 14.918851 27.672628 5.000000 19.909616 26.849186 -14.849581 5.775137 13.228935 20.945147 16.162405 11.411323 -6.307848 -1.562762 -11.299218 12.870005 -7.797482 11.637582 -8.006602 -13.981973 5.328473 2.505441 0.274020 -3.695179 -2.033299 13.428130 
0.203981 53.569492 -4.061162 -7.697369 -5.166585 -6.991622 31.169575 0.403829 0.129356 -0.308002 2.089558 -1.475048 -8.018407 -1.273666 0.133442 9.775159 0.291524 5.693434 -3.952545 -9.121127 -0.471797 -58.485004 2.357510 -6.011180 -32.267948 -5.000000 23.120775 -17.002644 -17.023178 12.243122 3.210655 6.233876 -0.331102 64.097656 14.233872 14.553716 27.072208 5.000000 21.267670 27.017065 -14.579017 5.659525 14.241219 21.440496 17.255541 10.498940 -6.249075 -1.444444 -10.690260 11.978688 -8.338027 12.445195 -7.253362 -13.771149 4.526307 2.425746 0.263341 -3.483012 -2.148600 13.164184 
-0.073502 53.568245 -4.004410 -8.014464 -5.477216 -6.956377 30.889879 0.806943 0.268380 -0.421708 2.157817 -1.660858 -8.067281 -1.292977 0.136363 10.037021 0.252439 6.162179 -4.002863 -9.296668 -0.480842 -58.588112 2.475855 -5.982780 -31.474672 -5.000000 23.781071 -17.280546 -17.146969 12.699281 2.958026 6.448473 -0.342196 64.063034 13.648040 14.177025 26.469196 5.000000 22.637608 27.195669 -14.304342 5.534203 15.270350 21.911934 18.375481 9.607312 -6.186059 -1.327598 -10.088416 11.118596 -8.836407 13.270793 -6.513790 -13.551193 3.719708 2.338734 0.194650 -3.276271 -2.247008 12.886659 
-0.297812 53.575066 -3.955599 -8.338779 -5.751688 -6.704697 30.717798 1.232978 0.352480 -0.517726 2.226024 -1.924774 -8.135663 -1.302633 0.137824 10.231388 0.232894 6.445378 -4.053041 -9.452704 -0.490483 -58.709705 2.567259 -5.970487 -30.754051 -5.000000 24.523966 -17.647879 -17.161692 13.239130 2.695189 6.585052 -0.349254 63.984596 13.113023 13.727183 25.989973 5.000000 23.929451 27.127922 -13.851792 5.290284 16.158186 22.351276 19.290321 8.735110 -6.170374 -1.197927 -9.463978 10.234876 -9.206422 13.997252 -5.857923 -13.279346 3.130890 2.269739 0.140193 -3.186383 -2.660820 12.663466 
-0.508831 53.583908 -3.908773 -8.672789 -6.017316 -6.392886 30.565718 1.662485 0.426818 -0.605678 2.313706 -2.217976 -8.204022 -1.302633 0.137824 10.397182 0.223089 6.669985 -4.093476 -9.608740 -0.498542 -58.820435 2.638000 -5.960345 -30.056236 -5.000000 25.282928 -18.047194 -17.140087 13.800416 2.432246 6.702127 -0.356441 63.904610 12.581223 13.264195 25.535582 5.000000 25.223738 27.010134 -13.351152 5.013951 16.990643 22.772928 20.160854 7.868205 -6.125927 -1.096231 -8.816710 9.320933 -9.591170 14.702749 -5.224221 -13.003156 2.574979 2.202316 0.127242 -3.087209 -3.197252 12.443641 
-0.693295 53.592743 -3.866420 -9.005941 -6.216005 -6.002435 30.441826 2.036049 0.456222 -0.684307 2.381812 -2.520938 -8.282102 -1.283321 0.134903 10.543006 0.213334 6.796937 -4.143436 -9.735519 -0.505088 -58.948215 2.678334 -5.922562 -29.409525 -5.000000 26.071449 -18.463734 -17.084333 14.339090 2.159489 6.809449 -0.362002 63.807758 12.059553 12.753861 25.164007 5.000000 26.391661 26.853498 -12.835503 4.717412 17.747290 23.111603 20.919737 7.025624 -6.120869 -0.970484 -8.200422 8.413033 -9.914195 15.350251 -4.706905 -12.684846 2.143461 2.151542 0.092810 -3.089004 -3.782268 12.248308 
-0.837924 53.601578 -3.830778 -9.326248 -6.309029 -5.492357 30.335697 2.312267 0.434122 -0.753659 2.449872 -2.823900 -8.369881 -1.235043 0.127599 10.650245 0.213355 6.748109 -4.202735 -9.813537 -0.509115 -59.072338 2.660352 -5.863193 -28.831568 -5.000000 26.911777 -18.897064 -16.986897 14.811297 1.896381 6.897266 -0.366551 63.683681 11.558305 12.190178 24.896358 5.000000 27.391499 26.662531 -12.301192 4.367210 18.372534 23.346298 21.505905 6.218733 -6.115250 -0.915609 -7.621672 7.572900 -10.128565 15.919020 -4.315712 -12.370062 1.862488 2.133565 0.067035 -3.229725 -4.473407 12.083881 
-0.982553 53.610413 -3.795137 -9.659032 -6.401798 -4.972582 30.238911 2.592733 0.403073 -0.823147 2.508126 -3.126862 -8.467656 -1.194959 0.131409 10.756346 0.203678 6.699281 -4.261950 -9.881803 -0.512637 -59.196800 2.651025 -5.798320 -28.251417 -5.000000 27.760185 -19.342045 -16.878416 15.291424 1.641851 6.985361 -0.361410 63.570599 11.048567 11.619927 24.626328 5.000000 28.404783 26.464394 -11.765538 4.029159 18.999235 23.601635 22.070692 5.412786 -6.139183 -0.853001 -7.020725 6.699753 -10.370465 16.466013 -3.954641 -12.028170 1.586476 2.130597 0.051506 -3.337327 -5.160927 11.939968 
-1.060871 53.611671 -3.771936 -9.982671 -6.271071 -4.352505 30.196922 2.665348 0.315040 -0.890591 2.537110 -3.410323 -8.584715 -1.137025 0.122645 10.814106 0.203774 6.464907 -4.302709 -9.881070 -0.522231 -59.325253 2.566197 -5.664882 -27.870829 -5.000000 28.521629 -19.818893 -16.681421 15.638396 1.428331 7.004622 -0.372110 63.484142 10.583409 11.053827 24.460615 5.000000 29.169184 26.179876 -11.292432 3.570271 19.400658 23.630842 22.292543 4.764704 -6.193125 -0.784543 -6.514110 5.964031 -10.462680 16.909420 -3.876523 -11.798185 1.572397 2.165022 0.070253 -3.569786 -5.920933 11.752231 
